<mxfile host="app.diagrams.net" modified="2020-09-14T07:39:59.302Z" agent="5.0 (Windows)" etag="KUWyAnf5_J-5WOGXBF_9" version="13.6.10" type="github">
  <diagram id="ElCv5-Th5ao3lZs8kL61" name="Page-1">
    <mxGraphModel dx="1344" dy="831" grid="1" gridSize="10" guides="1" tooltips="1" connect="1" arrows="1" fold="1" page="1" pageScale="1" pageWidth="850" pageHeight="1100" math="0" shadow="0">
      <root>
        <mxCell id="0" />
        <mxCell id="1" parent="0" />
        <mxCell id="7vGiwdcXxL5T3fefDH1Q-1" value="Bank" style="rounded=0;whiteSpace=wrap;html=1;" vertex="1" parent="1">
          <mxGeometry x="360" y="130" width="120" height="60" as="geometry" />
        </mxCell>
        <mxCell id="7vGiwdcXxL5T3fefDH1Q-2" value="Suppliers" style="rounded=0;whiteSpace=wrap;html=1;" vertex="1" parent="1">
          <mxGeometry x="130" y="290" width="120" height="60" as="geometry" />
        </mxCell>
        <mxCell id="7vGiwdcXxL5T3fefDH1Q-3" value="Dealers/Customers" style="rounded=0;whiteSpace=wrap;html=1;" vertex="1" parent="1">
          <mxGeometry x="580" y="290" width="120" height="60" as="geometry" />
        </mxCell>
        <mxCell id="7vGiwdcXxL5T3fefDH1Q-4" value="AB „EIKA“" style="ellipse;whiteSpace=wrap;html=1;" vertex="1" parent="1">
          <mxGeometry x="365" y="280" width="120" height="80" as="geometry" />
        </mxCell>
        <mxCell id="7vGiwdcXxL5T3fefDH1Q-5" value="" style="endArrow=classic;html=1;entryX=0.017;entryY=0.35;entryDx=0;entryDy=0;exitX=1;exitY=0.25;exitDx=0;exitDy=0;entryPerimeter=0;" edge="1" parent="1" source="7vGiwdcXxL5T3fefDH1Q-2" target="7vGiwdcXxL5T3fefDH1Q-4">
          <mxGeometry width="50" height="50" relative="1" as="geometry">
            <mxPoint x="280" y="390" as="sourcePoint" />
            <mxPoint x="330" y="340" as="targetPoint" />
          </mxGeometry>
        </mxCell>
        <mxCell id="7vGiwdcXxL5T3fefDH1Q-16" value="Contract_S" style="edgeLabel;html=1;align=center;verticalAlign=middle;resizable=0;points=[];" vertex="1" connectable="0" parent="7vGiwdcXxL5T3fefDH1Q-5">
          <mxGeometry x="0.3324" y="1" relative="1" as="geometry">
            <mxPoint x="-18" as="offset" />
          </mxGeometry>
        </mxCell>
        <mxCell id="7vGiwdcXxL5T3fefDH1Q-7" value="" style="endArrow=classic;html=1;entryX=0;entryY=0.367;entryDx=0;entryDy=0;exitX=0.992;exitY=0.363;exitDx=0;exitDy=0;exitPerimeter=0;entryPerimeter=0;" edge="1" parent="1" source="7vGiwdcXxL5T3fefDH1Q-4" target="7vGiwdcXxL5T3fefDH1Q-3">
          <mxGeometry width="50" height="50" relative="1" as="geometry">
            <mxPoint x="500" y="380" as="sourcePoint" />
            <mxPoint x="550" y="330" as="targetPoint" />
            <Array as="points" />
          </mxGeometry>
        </mxCell>
        <mxCell id="7vGiwdcXxL5T3fefDH1Q-19" value="Contract_DC" style="edgeLabel;html=1;align=center;verticalAlign=middle;resizable=0;points=[];" vertex="1" connectable="0" parent="7vGiwdcXxL5T3fefDH1Q-7">
          <mxGeometry x="-0.2695" y="-3" relative="1" as="geometry">
            <mxPoint x="11.07" y="-13.12" as="offset" />
          </mxGeometry>
        </mxCell>
        <mxCell id="7vGiwdcXxL5T3fefDH1Q-9" value="" style="endArrow=none;dashed=1;html=1;dashPattern=1 3;strokeWidth=2;entryX=-0.033;entryY=0.617;entryDx=0;entryDy=0;entryPerimeter=0;exitX=0.5;exitY=0;exitDx=0;exitDy=0;" edge="1" parent="1" source="7vGiwdcXxL5T3fefDH1Q-2" target="7vGiwdcXxL5T3fefDH1Q-1">
          <mxGeometry width="50" height="50" relative="1" as="geometry">
            <mxPoint x="210" y="310" as="sourcePoint" />
            <mxPoint x="260" y="260" as="targetPoint" />
          </mxGeometry>
        </mxCell>
        <mxCell id="7vGiwdcXxL5T3fefDH1Q-23" value="Payment_S" style="edgeLabel;html=1;align=center;verticalAlign=middle;resizable=0;points=[];" vertex="1" connectable="0" parent="7vGiwdcXxL5T3fefDH1Q-9">
          <mxGeometry x="0.2079" y="2" relative="1" as="geometry">
            <mxPoint as="offset" />
          </mxGeometry>
        </mxCell>
        <mxCell id="7vGiwdcXxL5T3fefDH1Q-10" value="" style="endArrow=none;dashed=1;html=1;dashPattern=1 3;strokeWidth=2;entryX=1;entryY=0.5;entryDx=0;entryDy=0;exitX=0.5;exitY=0;exitDx=0;exitDy=0;" edge="1" parent="1" source="7vGiwdcXxL5T3fefDH1Q-3" target="7vGiwdcXxL5T3fefDH1Q-1">
          <mxGeometry width="50" height="50" relative="1" as="geometry">
            <mxPoint x="580" y="260" as="sourcePoint" />
            <mxPoint x="630" y="210" as="targetPoint" />
          </mxGeometry>
        </mxCell>
        <mxCell id="7vGiwdcXxL5T3fefDH1Q-24" value="Payment_DC" style="edgeLabel;html=1;align=center;verticalAlign=middle;resizable=0;points=[];" vertex="1" connectable="0" parent="7vGiwdcXxL5T3fefDH1Q-10">
          <mxGeometry x="-0.1285" y="-4" relative="1" as="geometry">
            <mxPoint as="offset" />
          </mxGeometry>
        </mxCell>
        <mxCell id="7vGiwdcXxL5T3fefDH1Q-11" value="" style="endArrow=classic;html=1;exitX=0.292;exitY=0;exitDx=0;exitDy=0;exitPerimeter=0;" edge="1" parent="1" source="7vGiwdcXxL5T3fefDH1Q-4">
          <mxGeometry width="50" height="50" relative="1" as="geometry">
            <mxPoint x="380" y="260" as="sourcePoint" />
            <mxPoint x="400" y="190" as="targetPoint" />
          </mxGeometry>
        </mxCell>
        <mxCell id="7vGiwdcXxL5T3fefDH1Q-21" value="Payment_in" style="edgeLabel;html=1;align=center;verticalAlign=middle;resizable=0;points=[];" vertex="1" connectable="0" parent="7vGiwdcXxL5T3fefDH1Q-11">
          <mxGeometry x="0.3778" y="-2" relative="1" as="geometry">
            <mxPoint as="offset" />
          </mxGeometry>
        </mxCell>
        <mxCell id="7vGiwdcXxL5T3fefDH1Q-12" value="" style="endArrow=classic;html=1;entryX=0.617;entryY=-0.025;entryDx=0;entryDy=0;entryPerimeter=0;exitX=0.658;exitY=1.033;exitDx=0;exitDy=0;exitPerimeter=0;" edge="1" parent="1" source="7vGiwdcXxL5T3fefDH1Q-1" target="7vGiwdcXxL5T3fefDH1Q-4">
          <mxGeometry width="50" height="50" relative="1" as="geometry">
            <mxPoint x="430" y="240" as="sourcePoint" />
            <mxPoint x="480" y="190" as="targetPoint" />
          </mxGeometry>
        </mxCell>
        <mxCell id="7vGiwdcXxL5T3fefDH1Q-22" value="Payment_out" style="edgeLabel;html=1;align=center;verticalAlign=middle;resizable=0;points=[];" vertex="1" connectable="0" parent="7vGiwdcXxL5T3fefDH1Q-12">
          <mxGeometry x="0.5117" y="-1" relative="1" as="geometry">
            <mxPoint as="offset" />
          </mxGeometry>
        </mxCell>
        <mxCell id="7vGiwdcXxL5T3fefDH1Q-14" value="" style="endArrow=classic;html=1;entryX=0.017;entryY=0.35;entryDx=0;entryDy=0;exitX=1;exitY=0.25;exitDx=0;exitDy=0;entryPerimeter=0;" edge="1" parent="1">
          <mxGeometry width="50" height="50" relative="1" as="geometry">
            <mxPoint x="250" y="330" as="sourcePoint" />
            <mxPoint x="367.03999999999996" y="333" as="targetPoint" />
          </mxGeometry>
        </mxCell>
        <mxCell id="7vGiwdcXxL5T3fefDH1Q-17" value="Supplies" style="edgeLabel;html=1;align=center;verticalAlign=middle;resizable=0;points=[];" vertex="1" connectable="0" parent="7vGiwdcXxL5T3fefDH1Q-14">
          <mxGeometry x="0.3" y="-3" relative="1" as="geometry">
            <mxPoint x="-15.9" y="-4.95" as="offset" />
          </mxGeometry>
        </mxCell>
        <mxCell id="7vGiwdcXxL5T3fefDH1Q-18" value="" style="endArrow=classic;html=1;entryX=0;entryY=0.367;entryDx=0;entryDy=0;exitX=0.992;exitY=0.363;exitDx=0;exitDy=0;exitPerimeter=0;entryPerimeter=0;" edge="1" parent="1">
          <mxGeometry width="50" height="50" relative="1" as="geometry">
            <mxPoint x="484.03999999999996" y="329.99999999999994" as="sourcePoint" />
            <mxPoint x="580" y="332.97999999999996" as="targetPoint" />
            <Array as="points" />
          </mxGeometry>
        </mxCell>
        <mxCell id="7vGiwdcXxL5T3fefDH1Q-20" value="Product" style="edgeLabel;html=1;align=center;verticalAlign=middle;resizable=0;points=[];" vertex="1" connectable="0" parent="7vGiwdcXxL5T3fefDH1Q-18">
          <mxGeometry x="-0.2493" y="-2" relative="1" as="geometry">
            <mxPoint x="10.04" as="offset" />
          </mxGeometry>
        </mxCell>
      </root>
    </mxGraphModel>
  </diagram>
</mxfile>
